<svg xmlns="http://www.w3.org/2000/svg" xmlns:xlink="http://www.w3.org/1999/xlink" width="500" zoomAndPan="magnify" viewBox="0 0 375 374.999991" height="500" preserveAspectRatio="xMidYMid meet" version="1.0"><defs><clipPath id="bcd63e4ca8"><path d="M 113.96875 114.402344 L 260.597656 114.402344 L 260.597656 261.03125 L 113.96875 261.03125 Z M 113.96875 114.402344 " clip-rule="nonzero"/></clipPath><clipPath id="6015d15b02"><path d="M 187.285156 114.402344 C 146.792969 114.402344 113.96875 147.226562 113.96875 187.714844 C 113.96875 228.207031 146.792969 261.03125 187.285156 261.03125 C 227.773438 261.03125 260.597656 228.207031 260.597656 187.714844 C 260.597656 147.226562 227.773438 114.402344 187.285156 114.402344 Z M 187.285156 114.402344 " clip-rule="nonzero"/></clipPath><clipPath id="454528aced"><path d="M 0.96875 0.402344 L 147.597656 0.402344 L 147.597656 147.03125 L 0.96875 147.03125 Z M 0.96875 0.402344 " clip-rule="nonzero"/></clipPath><clipPath id="6ef59dff05"><path d="M 74.285156 0.402344 C 33.792969 0.402344 0.96875 33.226562 0.96875 73.714844 C 0.96875 114.207031 33.792969 147.03125 74.285156 147.03125 C 114.773438 147.03125 147.597656 114.207031 147.597656 73.714844 C 147.597656 33.226562 114.773438 0.402344 74.285156 0.402344 Z M 74.285156 0.402344 " clip-rule="nonzero"/></clipPath><clipPath id="bb3c788d52"><rect x="0" width="148" y="0" height="148"/></clipPath><clipPath id="d16270d507"><path d="M 113.96875 114.402344 L 260.59375 114.402344 L 260.59375 261.027344 L 113.96875 261.027344 Z M 113.96875 114.402344 " clip-rule="nonzero"/></clipPath><clipPath id="8a9379bd16"><path d="M 187.28125 114.402344 C 146.792969 114.402344 113.96875 147.222656 113.96875 187.714844 C 113.96875 228.203125 146.792969 261.027344 187.28125 261.027344 C 227.769531 261.027344 260.59375 228.203125 260.59375 187.714844 C 260.59375 147.222656 227.769531 114.402344 187.28125 114.402344 Z M 187.28125 114.402344 " clip-rule="nonzero"/></clipPath></defs><rect x="-37.5" width="450" fill="#ffffff" y="-37.499999" height="449.999989" fill-opacity="1"/><rect x="-37.5" width="450" fill="#ffffff" y="-37.499999" height="449.999989" fill-opacity="1"/><g clip-path="url(#bcd63e4ca8)"><g clip-path="url(#6015d15b02)"><g transform="matrix(1, 0, 0, 1, 113, 114)"><g clip-path="url(#bb3c788d52)"><g clip-path="url(#454528aced)"><g clip-path="url(#6ef59dff05)"><path fill="#ffffff" d="M 0.96875 0.402344 L 147.597656 0.402344 L 147.597656 147.03125 L 0.96875 147.03125 Z M 0.96875 0.402344 " fill-opacity="1" fill-rule="nonzero"/></g></g></g></g></g></g><g clip-path="url(#d16270d507)"><g clip-path="url(#8a9379bd16)"><path stroke-linecap="butt" transform="matrix(0.75, 0, 0, 0.75, 113.968891, 114.400891)" fill="none" stroke-linejoin="miter" d="M 97.749819 0.00193715 C 43.76544 0.00193715 -0.000187488 43.762357 -0.000187488 97.751944 C -0.000187488 151.736322 43.76544 195.50195 97.749819 195.50195 C 151.734197 195.50195 195.499825 151.736322 195.499825 97.751944 C 195.499825 43.762357 151.734197 0.00193715 97.749819 0.00193715 Z M 97.749819 0.00193715 " stroke="#000000" stroke-width="24" stroke-opacity="1" stroke-miterlimit="4"/></g></g><path fill="#211d1d" d="M 223.367188 151.851562 C 219.367188 146.414062 211.6875 145.246094 206.246094 149.242188 L 188.59375 162.214844 C 188.488281 162.289062 188.386719 162.367188 188.285156 162.445312 C 189.523438 162.324219 190.789062 162.355469 192.050781 162.550781 C 193.351562 162.746094 194.585938 163.105469 195.738281 163.597656 L 209.414062 153.546875 C 212.480469 151.292969 216.804688 151.953125 219.0625 155.019531 C 221.316406 158.078125 220.65625 162.402344 217.589844 164.65625 L 204.582031 174.214844 L 199.933594 177.625 C 198.707031 178.527344 197.28125 178.964844 195.855469 178.964844 C 195.09375 178.964844 194.332031 178.839844 193.613281 178.59375 C 192.324219 178.152344 191.15625 177.332031 190.292969 176.15625 C 189.71875 175.382812 189.335938 174.53125 189.128906 173.652344 C 187.480469 173.921875 186.121094 175.226562 185.851562 176.957031 L 185.582031 178.742188 C 185.707031 178.9375 185.84375 179.128906 185.984375 179.324219 C 187.71875 181.683594 190.15625 183.242188 192.800781 183.917969 C 196.234375 184.796875 200.027344 184.191406 203.105469 181.929688 L 204.632812 180.804688 L 220.757812 168.960938 C 226.195312 164.964844 227.371094 157.289062 223.367188 151.851562 " fill-opacity="1" fill-rule="nonzero"/><path fill="#211d1d" d="M 188.925781 195.886719 C 187.519531 193.972656 185.65625 192.589844 183.597656 191.773438 L 182.75 197.3125 C 183.457031 197.757812 184.09375 198.339844 184.617188 199.054688 C 185.523438 200.277344 185.960938 201.707031 185.960938 203.121094 C 185.960938 205.242188 184.984375 207.335938 183.148438 208.691406 L 178.488281 212.117188 L 165.496094 221.660156 C 164.265625 222.5625 162.835938 222.996094 161.417969 222.996094 C 159.296875 222.996094 157.199219 222.023438 155.847656 220.1875 C 153.59375 217.125 154.253906 212.804688 157.320312 210.550781 L 171.316406 200.269531 C 171.238281 199.171875 171.277344 198.046875 171.453125 196.914062 L 172.03125 193.117188 C 171.957031 193.164062 171.882812 193.21875 171.804688 193.273438 L 154.152344 206.246094 C 148.710938 210.242188 147.539062 217.917969 151.539062 223.355469 C 155.542969 228.792969 163.222656 229.964844 168.664062 225.964844 L 184.59375 214.261719 L 186.316406 212.996094 C 190.832031 209.679688 192.40625 203.828125 190.523438 198.828125 C 190.140625 197.804688 189.609375 196.8125 188.925781 195.886719 " fill-opacity="1" fill-rule="nonzero"/><path fill="#211d1d" d="M 174.226562 199.648438 C 174.230469 199.78125 174.238281 199.910156 174.246094 200.035156 C 174.253906 200.125 174.261719 200.21875 174.269531 200.3125 C 174.558594 203.511719 176.113281 206.429688 178.480469 208.472656 L 181.402344 206.324219 C 181.921875 205.945312 182.328125 205.457031 182.601562 204.90625 C 180.632812 203.578125 179.433594 201.269531 179.578125 198.796875 C 179.589844 198.597656 179.613281 198.394531 179.644531 198.1875 C 179.644531 198.179688 179.644531 198.171875 179.644531 198.160156 L 181.246094 187.675781 L 182.507812 179.386719 L 182.648438 178.464844 L 182.945312 176.515625 C 182.957031 176.421875 182.972656 176.328125 182.996094 176.238281 C 183.011719 176.148438 183.03125 176.054688 183.054688 175.964844 C 183.113281 175.699219 183.195312 175.433594 183.292969 175.175781 C 183.324219 175.089844 183.355469 175.003906 183.394531 174.921875 C 183.457031 174.757812 183.535156 174.59375 183.613281 174.433594 C 183.714844 174.238281 183.820312 174.050781 183.933594 173.871094 C 183.984375 173.796875 184.03125 173.722656 184.082031 173.648438 C 184.140625 173.5625 184.199219 173.484375 184.257812 173.402344 C 185.050781 172.359375 186.132812 171.554688 187.355469 171.09375 C 187.449219 171.058594 187.546875 171.027344 187.640625 170.996094 C 187.730469 170.964844 187.820312 170.941406 187.90625 170.917969 C 187.980469 170.898438 188.050781 170.878906 188.125 170.859375 C 188.207031 170.839844 188.289062 170.820312 188.371094 170.800781 C 188.378906 170.800781 188.386719 170.800781 188.394531 170.796875 C 188.472656 170.777344 188.554688 170.765625 188.636719 170.753906 C 188.703125 170.742188 188.769531 170.730469 188.832031 170.722656 C 189.472656 170.636719 190.136719 170.636719 190.804688 170.738281 C 191.042969 170.773438 191.269531 170.824219 191.496094 170.878906 C 194.015625 171.53125 195.90625 173.539062 196.480469 175.976562 C 197.09375 175.875 197.679688 175.636719 198.191406 175.257812 L 201.160156 173.078125 C 199.976562 170.078125 197.621094 167.601562 194.582031 166.300781 C 194.492188 166.265625 194.402344 166.226562 194.3125 166.191406 C 194.253906 166.164062 194.1875 166.140625 194.125 166.117188 C 193.929688 166.042969 193.734375 165.972656 193.53125 165.910156 C 193.460938 165.886719 193.390625 165.863281 193.320312 165.84375 C 193.214844 165.8125 193.105469 165.777344 192.992188 165.75 C 192.90625 165.726562 192.816406 165.699219 192.722656 165.675781 C 192.632812 165.65625 192.539062 165.636719 192.449219 165.613281 C 192.355469 165.59375 192.265625 165.574219 192.171875 165.554688 C 192.078125 165.539062 191.988281 165.523438 191.890625 165.5 C 191.796875 165.484375 191.703125 165.46875 191.609375 165.457031 C 190.703125 165.316406 189.804688 165.28125 188.925781 165.34375 C 188.832031 165.351562 188.742188 165.359375 188.652344 165.367188 C 183.175781 165.863281 178.523438 170.039062 177.660156 175.710938 L 175.917969 187.128906 L 174.359375 197.355469 C 174.332031 197.53125 174.3125 197.703125 174.292969 197.875 C 174.246094 198.308594 174.21875 198.746094 174.21875 199.1875 C 174.21875 199.328125 174.222656 199.472656 174.226562 199.621094 L 174.226562 199.648438 " fill-opacity="1" fill-rule="nonzero"/><path fill="#211d1d" d="M 195.269531 187.230469 L 193.542969 198.566406 C 194.726562 202.304688 194.375 206.292969 192.738281 209.707031 C 195.769531 207.894531 198 204.796875 198.574219 201.042969 L 200.804688 186.417969 C 199.21875 186.96875 197.550781 187.246094 195.871094 187.246094 C 195.671875 187.246094 195.46875 187.242188 195.269531 187.230469 " fill-opacity="1" fill-rule="nonzero"/></svg>